<svg xmlns="http://www.w3.org/2000/svg" xmlns:xlink="http://www.w3.org/1999/xlink" width="286px" height="244px" viewBox="0 0 286 244" version="1.1" class="img-svg replaced-svg">
    <title>AI</title>
    <defs>
        <linearGradient x1="0%" y1="50%" x2="100%" y2="50%" id="ailinearGradient-1">
            <stop stop-color="#A9F5D2" offset="0%"></stop>
            <stop stop-color="#97F3E8" offset="100%"></stop>
        </linearGradient>
        <linearGradient x1="0%" y1="50%" x2="100%" y2="50%" id="ailinearGradient-2">
            <stop stop-color="#97F3E8" offset="0%"></stop>
            <stop stop-color="#97DBF3" offset="99.9399038%"></stop>
        </linearGradient>
    </defs>
    <g id="Img-/-main-/-core-bg-text_01_PC" stroke="none" stroke-width="1" fill="none" fill-rule="evenodd" opacity="0.5">
        <g id="AI" fill-rule="nonzero">
            <path d="M121.910196,0.5 L205.217141,232.653717 C206.032097,235.793754 206.00002,238.416149 205.077218,240.514754 C204.643688,241.500674 203.932118,242.238862 202.94498,242.731649 C201.906715,243.249958 200.575544,243.5 198.956522,243.5 L198.956522,243.5 L181.345299,243.5 L156.234058,169.041113 C153.807909,170.518165 151.26256,171.202276 148.596897,171.08861 C146.02197,170.978814 143.66162,170.923957 141.515849,170.923957 L141.515849,170.923957 L72.5880975,170.923957 L77.8074662,156.156644 C78.6190302,153.872676 79.5645225,152.297092 80.6833804,151.464357 C81.8038716,150.630407 83.8013598,150.249664 86.6423562,150.249664 L86.6423562,150.249664 L148.637867,150.249664 L113.104536,48.4309296 C111.826854,44.9441369 110.550156,40.3129654 109.272486,34.5380197 C107.752487,27.6677698 107.443297,20.1015532 108.340321,11.83977 L108.340321,11.83977 L30.020006,236.262573 C28.9861446,238.585003 27.7513185,240.384861 26.3047864,241.653727 C24.8805343,242.90305 22.7355581,243.5 19.8956522,243.5 L19.8956522,243.5 L0.707110612,243.5 L81.9788125,13.63265 C83.547792,9.24386401 85.6310622,5.94459997 88.2473556,3.74909297 C90.8322222,1.57995838 93.9352249,0.5 97.5528752,0.5 L97.5528752,0.5 L121.910196,0.5 Z" id="aiPath1" stroke="url(#ailinearGradient-1)"></path>
            <path d="M285.5,0.5 L285.5,235.133244 C285.5,237.804021 284.611244,239.868762 282.800539,241.310007 C280.968568,242.768178 278.933666,243.5 276.693969,243.5 L276.693969,243.5 L260.186396,243.5 L260.186396,9.19515478 C260.186396,6.7093866 260.990793,4.63490536 262.61119,2.97663285 C264.231822,1.31812027 266.362262,0.5 268.992426,0.5 L268.992426,0.5 L285.5,0.5 Z" id="aiPath2" stroke="url(#ailinearGradient-2)"></path>
        </g>
    </g>
</svg>