<svg xmlns="http://www.w3.org/2000/svg" xmlns:xlink="http://www.w3.org/1999/xlink" width="1506px" height="244px" viewBox="0 0 1506 244" version="1.1" class="img-svg replaced-svg">
    <title>Blockchain</title>
    <defs>
        <linearGradient x1="0%" y1="50%" x2="100%" y2="50%" id="blocklinearGradient-1">
            <stop stop-color="#97A0F3" offset="0%"></stop>
            <stop stop-color="#979AF3" offset="100%"></stop>
        </linearGradient>
        <linearGradient x1="0%" y1="50%" x2="100%" y2="50%" id="blocklinearGradient-2">
            <stop stop-color="#979AF3" offset="0%"></stop>
            <stop stop-color="#9797F3" offset="100%"></stop>
        </linearGradient>
        <linearGradient x1="0%" y1="50%" x2="100%" y2="50%" id="blocklinearGradient-3">
            <stop stop-color="#9797F3" offset="0%"></stop>
            <stop stop-color="#9D97F3" offset="100%"></stop>
        </linearGradient>
        <linearGradient x1="0%" y1="50%" x2="100%" y2="50%" id="blocklinearGradient-4">
            <stop stop-color="#9D97F3" offset="0%"></stop>
            <stop stop-color="#A397F3" offset="100%"></stop>
        </linearGradient>
        <linearGradient x1="0%" y1="50%" x2="100%" y2="50%" id="blocklinearGradient-5">
            <stop stop-color="#A397F3" offset="0%"></stop>
            <stop stop-color="#A997F3" offset="100%"></stop>
        </linearGradient>
        <linearGradient x1="0%" y1="50%" x2="100%" y2="50%" id="blocklinearGradient-6">
            <stop stop-color="#A997F3" offset="0%"></stop>
            <stop stop-color="#B097F3" offset="100%"></stop>
        </linearGradient>
        <linearGradient x1="0%" y1="50%" x2="100%" y2="50%" id="blocklinearGradient-7">
            <stop stop-color="#B097F3" offset="0%"></stop>
            <stop stop-color="#B697F3" offset="100%"></stop>
        </linearGradient>
        <linearGradient x1="0%" y1="50%" x2="100%" y2="50%" id="blocklinearGradient-8">
            <stop stop-color="#B697F3" offset="0%"></stop>
            <stop stop-color="#BC97F3" offset="100%"></stop>
        </linearGradient>
        <linearGradient x1="0%" y1="50%" x2="100%" y2="50%" id="blocklinearGradient-9">
            <stop stop-color="#BC97F3" offset="0%"></stop>
            <stop stop-color="#BF97F3" offset="100%"></stop>
        </linearGradient>
        <linearGradient x1="0%" y1="50%" x2="100%" y2="50%" id="blocklinearGradient-10">
            <stop stop-color="#BF97F3" offset="0%"></stop>
            <stop stop-color="#C597F3" offset="100%"></stop>
        </linearGradient>
    </defs>
    <g id="Img-/-main-/-core-bg-text_03_PC" stroke="none" stroke-width="1" fill="none" fill-rule="evenodd" opacity="0.5">
        <g id="Blockchain" fill-rule="nonzero">
            <path d="M75.5438146,2.67264628 C84.8707319,2.67264628 94.1976791,3.78751294 103.524611,6.01763267 C112.870008,8.25216727 121.33237,11.8176097 128.912439,16.7122495 C136.508171,21.6170028 142.699037,27.8547205 147.485371,35.4250723 C152.279421,43.0076298 154.683687,52.1372072 154.683687,62.8183963 C154.683687,78.612747 151.122812,90.8211963 144.043868,99.4620603 C137.409074,107.560776 128.763892,113.460129 118.107226,117.154614 C123.959854,117.958768 129.608152,119.684335 135.051996,122.331763 C141.195018,125.319214 146.609139,129.267 151.294486,134.174945 C155.978867,139.081878 159.726983,144.788497 162.537646,151.295596 C165.349895,157.806367 166.758313,165.010575 166.758313,172.909222 C166.758313,183.56885 164.725871,193.001312 160.669237,201.20869 C156.611354,209.418597 150.940978,216.402589 143.657557,222.160218 C136.385112,227.909171 127.814823,232.222696 117.944818,235.097247 C108.415898,237.872461 97.9649611,239.306175 86.5916099,239.395784 L85.4512001,239.400265 L-0.5,239.400265 L-0.5,18.4013484 C-0.5,13.8153957 0.94648128,10.0529903 3.82183202,7.10651099 C6.61415244,4.24511593 9.75874962,2.77582033 13.2475395,2.67789197 L13.6226551,2.67264628 L75.5438146,2.67264628 Z M89.4760754,129.626704 L25.5780696,129.626704 L25.5780696,222.527322 L25.8897647,222.27365 C27.4790894,221.020917 29.531283,220.002775 32.0520784,219.227829 C35.2006094,218.259904 38.1394306,217.778064 40.8679653,217.778064 L40.8679653,217.778064 L87.9280465,217.778064 L88.8219834,217.772603 C95.6591504,217.688863 102.120277,216.642084 108.2051,214.630683 C114.545618,212.534758 120.068901,209.654311 124.773302,205.98633 C129.463859,202.329143 133.185849,197.88837 135.939013,192.663796 C138.688243,187.446688 140.061032,181.707558 140.061032,175.447339 C140.061032,168.966446 138.735865,162.903394 136.08362,157.258619 C133.42909,151.60898 129.856116,146.743647 125.36378,142.663303 C120.868551,138.580332 115.504126,135.388745 109.272319,133.08561 C103.031643,130.779197 96.432808,129.626704 89.4760754,129.626704 L89.4760754,129.626704 Z M75.8534204,25.246641 L25.5780696,25.246641 L25.5780696,113.515801 L25.8711706,113.223066 C27.4632164,111.682813 29.5168224,110.478638 32.037382,109.617668 C35.1911617,108.540402 38.1349614,108.004503 40.8679653,108.004503 L40.8679653,108.004503 L73.6861798,108.004503 L74.5028189,108.001585 C90.5097843,107.886805 103.354102,104.385789 113.024862,97.4694433 C122.815196,90.4675795 127.6768,79.1152544 127.6768,63.4529256 C127.6768,56.5750143 126.260562,50.736263 123.412439,45.9414558 C120.562777,41.1440588 116.797174,37.2331135 112.115583,34.2086649 C107.413476,31.1709623 101.892816,28.9210348 95.5554735,27.4546224 C89.1933522,25.9824765 82.6259827,25.246641 75.8534204,25.246641 L75.8534204,25.246641 Z" id="blockPath1" stroke="url(#blocklinearGradient-1)"></path>
            <path d="M225.041605,2.67264628 L225.041605,229.699591 C225.041605,232.835743 223.987406,235.232778 221.914826,236.909502 C219.869237,238.56439 217.341308,239.400265 214.324613,239.400265 L214.324613,239.400265 L199.892352,239.400265 L199.892352,12.3733205 C199.892352,9.24025261 200.892926,6.8466513 202.85411,5.17190306 C204.796448,3.51324798 207.275284,2.67264628 210.299738,2.67264628 L210.299738,2.67264628 L225.041605,2.67264628 Z" id="blockPath2" stroke="url(#blocklinearGradient-2)"></path>
            <path d="M340.101968,60.7320732 C354.219306,60.7320732 366.362693,63.0776045 376.534832,67.7576646 C386.724499,72.4457897 395.041139,78.8935215 401.487461,87.0974838 C407.925734,95.2912006 412.652615,104.973816 415.664147,116.147368 C418.667817,127.291754 420.170658,139.338212 420.170658,152.287021 C420.170658,165.447706 418.667723,177.599904 415.664147,188.74394 C412.652988,199.916111 407.926886,209.650859 401.489387,217.949989 C395.042587,226.261113 386.72523,232.762446 376.534832,237.450907 C366.362693,242.130968 354.219306,244.476499 340.101968,244.476499 C326.396378,244.476499 314.5614,242.130484 304.594349,237.449246 C294.614095,232.761807 286.349993,226.262458 279.800561,217.953047 C273.260408,209.655408 268.379558,199.922386 265.161318,188.752246 C261.949867,177.605671 260.342884,165.450722 260.342884,152.287021 C260.342884,139.33522 261.949759,127.286009 265.161318,116.139061 C268.379951,104.967557 273.261581,95.2866664 279.802513,87.0944315 C286.35145,78.8921716 294.614825,72.446422 304.594349,67.7593259 C314.5614,63.0780881 326.396378,60.7320732 340.101968,60.7320732 Z M340.72118,82.9888033 C331.318379,82.9888033 323.242066,84.7631219 316.495742,88.3244729 C309.756751,91.8819525 304.242735,96.747043 299.954249,102.92037 C295.652657,109.112563 292.479885,116.407616 290.431582,124.803506 C288.376406,133.227572 287.349771,142.388825 287.349771,152.287021 C287.349771,162.397055 288.376489,171.717404 290.431918,180.247817 C292.480191,188.748534 295.652702,196.096074 299.954249,202.288202 C304.241351,208.459538 309.75348,213.270901 316.490321,216.722648 C323.238155,220.180026 331.316222,221.902504 340.72118,221.902504 C349.711708,221.902504 357.478278,220.180821 364.017633,216.725555 C370.551456,213.273213 375.961914,208.460505 380.249688,202.288202 C384.55231,196.094525 387.776952,188.745174 389.928183,180.242305 C392.085958,171.713574 393.163771,162.395051 393.163771,152.287021 C393.163771,142.390841 392.086048,133.231433 389.92855,124.809074 C387.777279,116.411026 384.552374,109.114138 380.249688,102.92037 C375.960492,96.7460211 370.548112,91.8795668 364.012154,88.3214458 C357.474337,84.7623121 349.709547,82.9888033 340.72118,82.9888033 Z" id="blockPath3" stroke="url(#blocklinearGradient-3)"></path>
            <path d="M526.244692,60.7321335 C539.970563,60.5190211 552.083003,63.6667341 562.584662,70.1662192 C573.212381,76.7437233 581.443597,85.5587151 587.278404,96.6111058 L587.278404,96.6111058 L574.206807,105.432134 C572.584004,106.501172 571.227785,106.794127 570.139938,106.442098 C569.057059,106.091677 568.181531,105.090822 567.595355,103.332812 C562.906084,96.4567263 557.203491,91.294604 550.483313,87.8513953 C543.737736,84.395173 535.253007,82.8867973 525.026836,83.3059039 C516.854663,83.5152622 509.549693,85.3441089 503.113687,88.7987456 C496.678563,92.2529095 491.265373,97.0159506 486.873206,103.08682 C482.467684,109.17615 479.08889,116.421279 476.73253,124.820064 C474.370368,133.239525 473.190651,142.501067 473.190651,152.604286 C473.190651,174.463035 477.991871,191.497477 487.634315,203.691017 C497.240769,215.839046 510.529889,221.902504 527.490877,221.902504 C538.325131,221.902504 547.221512,219.870427 554.173238,215.784779 C561.087657,211.721057 565.875419,206.673432 568.519968,200.628118 C569.589384,199.146655 570.698694,198.330371 571.878195,198.04259 C573.08073,197.749189 574.37472,197.994178 575.755574,198.824563 L575.755574,198.824563 L588.788196,208.270792 C586.69169,213.313326 583.830267,218.076062 580.202932,222.558407 C576.661065,226.935136 572.390431,230.725287 567.390084,233.927814 C562.399035,237.124385 556.628684,239.682989 550.077791,241.600973 C543.53422,243.516814 536.211836,244.476499 528.117971,244.476437 C514.624738,244.68916 502.793407,242.664003 492.622094,238.409748 C482.432856,234.147996 473.907928,227.967575 467.045905,219.870383 C460.193307,211.784314 454.999726,202.050166 451.469496,190.665496 C447.946925,179.305525 446.183764,166.618661 446.183764,152.604286 C446.183764,139.439094 447.842783,127.282785 451.158203,116.134954 C454.480944,104.962504 459.466933,95.3340967 466.112238,87.2475873 C472.763853,79.1533994 481.129472,72.7619595 491.211044,68.0757493 C501.279922,63.3954392 512.957055,60.9448887 526.244692,60.7321335 Z" id="blockPath4" stroke="url(#blocklinearGradient-4)"></path>
            <path d="M647.266511,2.67264628 L647.266511,230.016855 C647.266511,233.15555 646.159138,235.555968 643.975139,237.234487 C641.822786,238.888684 639.347981,239.717529 636.549519,239.717529 L636.549519,239.717529 L620.56923,239.717529 L620.56923,12.3733205 C620.56923,9.24025261 621.569804,6.8466513 623.530987,5.17190306 C625.473325,3.51324798 627.952161,2.67264628 630.976615,2.67264628 L630.976615,2.67264628 L647.266511,2.67264628 Z M757.487109,65.8083072 L689.873335,141.189301 C687.063289,144.683374 683.482719,147.882348 679.129117,150.783523 L679.129117,150.783523 L757.009266,229.959339 C757.924401,230.671415 758.474701,231.53337 758.676101,232.5358 C758.872986,233.515754 758.73199,234.641914 758.224553,235.913 C757.718452,237.180739 756.994985,238.124971 756.068498,238.757908 C755.140477,239.391893 754.003502,239.717529 752.651693,239.717529 L752.651693,239.717529 L733.864075,239.717529 L654.625867,158.200752 L654.625867,149.748904 C654.625867,147.063393 655.404014,144.945405 656.927272,143.379868 L656.927272,143.379868 L719.151216,73.589302 C723.793316,68.3999195 729.491341,65.8083072 736.242586,65.8083072 L736.242586,65.8083072 L757.487109,65.8083072 Z" id="blockPath5" stroke="url(#blocklinearGradient-5)"></path>
            <path d="M867.585084,60.7321335 C881.310954,60.5190211 893.423394,63.6667341 903.925053,70.1662192 C914.552773,76.7437233 922.783989,85.5587151 928.618796,96.6111058 L928.618796,96.6111058 L915.547199,105.432134 C913.924396,106.501172 912.568177,106.794127 911.480329,106.442098 C910.39745,106.091677 909.521923,105.090822 908.935746,103.332812 C904.246475,96.4567263 898.543883,91.294604 891.823705,87.8513953 C885.078128,84.395173 876.593398,82.8867973 866.367228,83.3059039 C858.195055,83.5152622 850.890085,85.3441089 844.454079,88.7987456 C838.018954,92.2529095 832.605764,97.0159506 828.213598,103.08682 C823.808076,109.17615 820.429282,116.421279 818.072921,124.820064 C815.71076,133.239525 814.531043,142.501067 814.531043,152.604286 C814.531043,174.463035 819.332263,191.497477 828.974707,203.691017 C838.58116,215.839046 851.870281,221.902504 868.831269,221.902504 C879.665523,221.902504 888.561903,219.870427 895.513629,215.784779 C902.428048,211.721057 907.21581,206.673432 909.860359,200.628118 C910.929775,199.146655 912.039085,198.330371 913.218586,198.04259 C914.421122,197.749189 915.715112,197.994178 917.095966,198.824563 L917.095966,198.824563 L930.128588,208.270792 C928.032082,213.313326 925.170659,218.076062 921.543323,222.558407 C918.001457,226.935136 913.730822,230.725287 908.730476,233.927814 C903.739427,237.124385 897.969076,239.682989 891.418182,241.600973 C884.874612,243.516814 877.552228,244.476499 869.458362,244.476437 C855.96513,244.68916 844.133799,242.664003 833.962486,238.409748 C823.773248,234.147996 815.24832,227.967575 808.386296,219.870383 C801.533698,211.784314 796.340118,202.050166 792.809887,190.665496 C789.287316,179.305525 787.524156,166.618661 787.524156,152.604286 C787.524156,139.439094 789.183175,127.282785 792.498594,116.134954 C795.821336,104.962504 800.807325,95.3340967 807.45263,87.2475873 C814.104245,79.1533994 822.469863,72.7619595 832.551435,68.0757493 C842.620314,63.3954392 854.297447,60.9448887 867.585084,60.7321335 Z" id="blockPath6" stroke="url(#blocklinearGradient-6)"></path>
            <path d="M987.678085,2.67264628 L987.678085,77.7673055 C991.591753,72.5883736 996.981263,68.5075542 1003.85293,65.532207 C1011.22752,62.3390999 1021.56052,60.7320732 1034.85738,60.7320732 C1054.52856,60.7320732 1069.26533,65.6377754 1079.09617,75.3919961 C1088.92824,85.1474414 1093.87287,99.7710417 1093.87287,119.2915 L1093.87287,119.2915 L1093.87287,228.430532 C1093.87287,231.751947 1092.78476,234.459828 1090.62559,236.561784 C1088.46467,238.665441 1085.87164,239.717529 1082.84628,239.717529 L1082.84628,239.717529 L1067.4852,239.717529 L1067.4852,119.2915 C1067.4852,106.998739 1064.52183,98.1186562 1058.5167,92.6950705 C1052.50226,87.263078 1043.47174,84.5751264 1031.45171,84.5751264 C1018.17346,84.5751264 1008.05047,87.1702375 1001.10163,92.4060734 C994.173004,97.6266772 989.718822,106.827509 987.678085,119.964579 L987.678085,119.964579 L987.678085,228.430532 C987.678085,231.757419 986.483599,234.471809 984.103789,236.577942 C981.739884,238.669999 978.946562,239.717529 975.722671,239.717529 L975.722671,239.717529 L960.671198,239.717529 L960.671198,13.3251144 C960.671198,10.2280105 961.544974,7.68945433 963.270343,5.70039785 C965.009157,3.69584182 967.501532,2.67264628 970.768978,2.67264628 L970.768978,2.67264628 L987.678085,2.67264628 Z" id="blockPath7" stroke="url(#blocklinearGradient-7)"></path>
            <path d="M1193.45295,60.7320732 C1215.67935,60.7320732 1232.33671,64.9599333 1243.44635,73.3652892 C1254.4648,81.7016423 1260.07876,95.7059791 1260.20636,115.428538 L1260.20859,116.118854 L1260.20859,228.113268 C1260.20859,231.437606 1259.06714,234.148784 1256.79767,236.252909 C1254.62765,238.264827 1252.11062,239.311109 1249.24776,239.394806 L1248.87239,239.400265 L1234.13052,239.400265 L1234.13052,220.655214 C1230.62272,227.941051 1224.77529,233.541455 1216.5789,237.448032 C1207.64882,241.704307 1196.85066,244.050561 1184.17482,244.476398 C1173.57556,244.689368 1164.64029,243.45942 1157.36683,240.797498 C1150.05969,238.123246 1144.16476,234.322136 1139.67655,229.40203 C1135.19039,224.484164 1131.90307,218.711482 1129.81644,212.082905 C1127.73945,205.484968 1126.59557,198.142298 1126.38787,190.054348 C1126.3877,181.961165 1127.21875,174.51891 1128.87879,167.714481 C1130.54926,160.867327 1133.57802,154.876712 1137.96287,149.74149 C1142.34303,144.611769 1148.28465,140.439437 1155.79431,137.23301 C1163.27006,134.041061 1172.51003,132.12135 1183.52119,131.482679 C1192.20851,131.058764 1201.30952,131.164589 1210.82421,131.800463 C1219.7448,132.396632 1227.48675,133.73777 1234.05093,135.819992 L1234.74973,136.045923 L1234.74973,117.387912 C1234.74973,105.100593 1231.42941,96.1731044 1224.71503,90.6478719 C1217.97223,85.0992525 1207.54261,82.354274 1193.45295,82.354274 C1184.45292,82.354274 1176.32132,84.1331521 1169.05955,87.6966402 C1161.79245,91.2627505 1155.69841,95.1412942 1150.7801,99.3354863 C1149.52126,100.961538 1148.27581,101.707416 1147.08948,101.707416 C1145.94559,101.707416 1144.79582,101.020815 1143.68585,99.52303 L1143.51093,99.2797782 L1134.00061,86.6105307 C1137.16874,82.4320252 1141.04735,78.7012707 1145.63766,75.4195039 C1150.10782,72.2236425 1155.04559,69.5600438 1160.45139,67.4294564 C1165.84477,65.3037661 1171.39372,63.6563398 1177.09826,62.4872099 C1182.80942,61.3167216 1188.26102,60.7320732 1193.45295,60.7320732 Z M1212.76351,153.419964 C1204.8356,152.786923 1196.23869,152.575955 1186.97279,152.78666 C1173.75715,153.411989 1164.57445,157.017901 1159.48433,163.694427 C1154.38812,170.378939 1152.05784,178.946658 1152.46539,189.387481 C1152.87278,200.241496 1155.49879,208.446631 1160.39017,213.981141 C1165.27076,219.503436 1173.62583,222.219769 1185.4032,222.219769 C1192.34967,222.219769 1198.83679,220.912421 1204.86402,218.29533 C1210.89238,215.677751 1216.05315,212.223688 1220.34464,207.930735 C1224.63618,203.637749 1228.00854,198.821503 1230.46087,193.481392 C1232.90669,188.155461 1234.13052,182.673016 1234.13052,177.033662 L1234.13052,177.033662 L1234.13052,157.411771 L1233.24313,157.137775 C1227.00344,155.250679 1220.1768,154.011913 1212.76351,153.419964 Z" id="blockPath8" stroke="url(#blocklinearGradient-8)"></path>
            <path d="M1324.37439,65.8083072 L1324.37439,228.747797 C1324.37439,232.056197 1323.55243,234.695158 1321.94027,236.677612 C1320.30202,238.692134 1317.96021,239.717529 1314.89582,239.717529 L1314.89582,239.717529 L1298.60593,239.717529 L1298.60593,76.4607753 C1298.60593,73.3592887 1299.53401,70.8168181 1301.36991,68.8248331 C1303.21694,66.8207763 1305.65829,65.8083072 1308.70371,65.8083072 L1308.70371,65.8083072 L1324.37439,65.8083072 Z M1313.03819,-0.5 C1318.34546,-0.5 1322.80457,1.51063889 1326.41388,5.53558508 C1330.00571,9.54103227 1331.80493,14.3575293 1331.80493,19.9876716 C1331.80493,25.6216464 1330.00333,30.3865802 1326.40929,34.286171 C1322.80122,38.2009919 1318.34409,40.1580785 1313.03819,40.1580785 C1307.73629,40.1580785 1303.22885,38.2035777 1299.51721,34.291452 C1295.8161,30.390421 1293.96184,25.6235065 1293.96184,19.9876716 C1293.96184,14.355665 1295.81371,9.53717502 1299.51254,5.53024888 C1303.22547,1.5080643 1307.73488,-0.5 1313.03819,-0.5 Z" id="blockPath9" stroke="url(#blocklinearGradient-9)"></path>
            <path d="M1448.10372,60.7320732 C1457.87318,60.7320732 1466.39451,62.1203273 1473.66925,64.8892173 C1480.96871,67.6675132 1487.06753,71.6764791 1491.96837,76.9122523 C1496.86716,82.1458457 1500.5163,88.3401514 1502.91364,95.4964619 C1505.30367,102.630964 1506.5,110.350983 1506.5,118.656971 L1506.5,118.656971 L1506.5,228.113268 C1506.5,231.651643 1505.40816,234.46346 1503.25272,236.561784 C1501.0918,238.665441 1498.49876,239.717529 1495.4734,239.717529 L1495.4734,239.717529 L1480.11232,239.717529 L1480.11232,123.098676 C1480.11232,109.314122 1477.19227,99.3704597 1471.27591,93.3077438 C1465.37064,87.256397 1456.60549,84.2578618 1445.00766,84.2578618 C1432.14431,84.2578618 1422.12933,87.1156868 1414.97986,92.872093 C1407.84311,98.6182516 1402.96167,107.450074 1400.30521,119.346557 L1400.30521,119.346557 L1400.30521,228.113268 C1400.30521,231.657574 1399.10644,234.475605 1396.73092,236.577942 C1394.36701,238.669999 1391.57369,239.717529 1388.3498,239.717529 L1388.3498,239.717529 L1373.29832,239.717529 L1373.29832,76.4607753 C1373.29832,72.9147577 1374.16264,70.2713447 1375.83443,68.5029359 C1377.5148,66.7254494 1380.02564,65.8083072 1383.3961,65.8083072 L1383.3961,65.8083072 L1400.30521,65.8083072 L1400.30521,82.6046788 C1404.2089,76.4560078 1409.58073,71.3552512 1416.42409,67.3056933 C1423.8108,62.9346098 1434.36679,60.7320732 1448.10372,60.7320732 Z" id="blockPath10" stroke="url(#blocklinearGradient-10)"></path>
        </g>
    </g>
</svg>