<svg xmlns="http://www.w3.org/2000/svg" xmlns:xlink="http://www.w3.org/1999/xlink" width="1208px" height="318px" viewBox="0 0 1208 318" version="1.1" class="img-svg replaced-svg">
    <title>Big Data</title>
    <defs>
        <linearGradient x1="0%" y1="100%" x2="100%" y2="100%" id="biglinearGradient-1">
            <stop stop-color="#97DBF3" offset="0%"></stop>
            <stop stop-color="#97D1F3" offset="100%"></stop>
        </linearGradient>
        <linearGradient x1="0%" y1="100%" x2="82.1663062%" y2="100%" id="biglinearGradient-2">
            <stop stop-color="#97D1F3" offset="0.0655594406%"></stop>
            <stop stop-color="#97CEF3" offset="100%"></stop>
        </linearGradient>
        <linearGradient x1="0%" y1="100%" x2="100%" y2="100%" id="biglinearGradient-3">
            <stop stop-color="#97CEF3" offset="0.0655594406%"></stop>
            <stop stop-color="#97C5F3" offset="100%"></stop>
        </linearGradient>
        <linearGradient x1="0%" y1="100%" x2="100%" y2="100%" id="biglinearGradient-4">
            <stop stop-color="#97C5F3" offset="0.0655594406%"></stop>
            <stop stop-color="#97BCF3" offset="100%"></stop>
        </linearGradient>
        <linearGradient x1="0%" y1="100%" x2="100%" y2="100%" id="biglinearGradient-5">
            <stop stop-color="#97BCF3" offset="0.0655594406%"></stop>
            <stop stop-color="#97B3F3" offset="99.9399038%"></stop>
        </linearGradient>
        <linearGradient x1="0%" y1="100%" x2="100%" y2="100%" id="biglinearGradient-6">
            <stop stop-color="#97B3F3" offset="0.0655594406%"></stop>
            <stop stop-color="#97A9F3" offset="99.9399038%"></stop>
        </linearGradient>
        <linearGradient x1="0%" y1="100%" x2="100%" y2="100%" id="biglinearGradient-7">
            <stop stop-color="#97A9F3" offset="0.0655594406%"></stop>
            <stop stop-color="#97A0F3" offset="100%"></stop>
        </linearGradient>
    </defs>
    <g id="Img-/-main-/-core-bg-text_02_PC" stroke="none" stroke-width="1" fill="none" fill-rule="evenodd" opacity="0.5">
        <g id="Big-Data" fill-rule="nonzero">
            <path d="M77.9406359,3.77094832 C87.484784,3.77094832 97.0289022,4.91134572 106.573035,7.1917552 C116.098699,9.46775178 124.725131,13.097679 132.451589,18.0832504 C140.162343,23.0586892 146.447317,29.3859936 151.306167,37.0655045 C156.157256,44.7327495 158.57556,53.9673717 158.57556,64.7647767 C158.57556,80.7587628 155.007417,93.1433251 147.828314,101.900134 C140.648228,110.658142 131.143184,116.871673 119.317962,120.547625 C118.421543,120.826283 117.52784,121.08537 116.639841,121.324633 C117.565476,121.367765 118.49173,121.43382 119.418604,121.5228 C126.173901,122.171307 132.665211,124.009057 138.892715,127.03541 C145.120704,130.061999 150.609851,134.061333 155.360022,139.033596 C160.111129,144.006839 163.911406,149.791293 166.762036,156.386167 C169.611065,162.977335 171.033285,170.271174 171.033285,178.266683 C171.033285,189.085655 168.977025,198.661756 164.856249,206.992899 C160.736701,215.321562 154.979635,222.406088 147.585616,228.246936 C140.180574,234.09649 131.452394,238.481844 121.402953,241.406546 C111.644824,244.246467 100.941239,245.709455 89.2925969,245.798118 L88.1623587,245.802408 L0.5,245.802408 L0.5,18.9715003 C0.5,14.5364681 1.88414567,10.8887874 4.6700097,8.03606521 C7.34381918,5.29808678 10.3495024,3.87119673 13.6951098,3.77604614 L14.0548688,3.77094832 L77.9406359,3.77094832 Z M92.3149336,132.627597 L25.3737357,132.627597 L25.3737357,231.949701 L25.5753574,231.690232 C27.2279459,229.635221 29.8310594,228.077498 33.3674268,226.991127 C36.5092766,226.025951 39.441478,225.541244 42.1646063,225.541244 L42.1646063,225.541244 L90.7177894,225.541244 L91.6167949,225.535968 C98.792355,225.451542 105.572308,224.354044 111.956919,222.245065 C118.616437,220.045278 124.415765,217.01912 129.356552,213.169606 C134.311224,209.309274 138.242508,204.621626 141.150674,199.106887 C144.062804,193.584631 145.520691,187.51046 145.520691,180.883442 C145.520691,174.047529 144.120023,167.652922 141.320594,161.699188 C138.523472,155.75036 134.757686,150.628121 130.024149,146.331794 C125.293542,142.038127 119.64987,138.678752 113.091314,136.256604 C106.541654,133.837741 99.6162808,132.627597 92.3149336,132.627597 L92.3149336,132.627597 Z M78.2600648,25.0133969 L25.3737357,25.0133969 L25.3737357,120.032955 L25.5592134,119.726873 C27.2039469,117.101695 29.8172359,115.191912 33.3821156,113.9751 C36.5187194,112.904474 39.445945,112.366433 42.1646063,112.366433 L42.1646063,112.366433 L76.0240629,112.366433 L76.8517577,112.36355 C93.6269785,112.246324 107.073311,108.553947 117.201675,101.315549 C127.540562,93.926698 132.743538,81.9746463 132.743538,65.4189664 C132.743538,58.1209147 131.224252,51.9315788 128.201333,46.8461704 C125.179989,41.7634113 121.187484,37.6198747 116.22385,34.4155285 C111.280777,31.2244552 105.478834,28.8564967 98.8161511,27.3159139 C92.1782482,25.7810608 85.3262378,25.0133969 78.2600648,25.0133969 L78.2600648,25.0133969 Z" id="bigPath1" stroke="url(#biglinearGradient-1)"></path>
            <path d="M229.888048,68.8628199 L229.888048,235.835374 C229.888048,238.970509 229.137457,241.48638 227.604522,243.370049 C226.097566,245.221795 223.931249,246.129503 221.124612,246.129503 L221.124612,246.129503 L205.333741,246.129503 L205.333741,78.8298545 C205.333741,75.9173702 206.187893,73.5197985 207.916428,71.6456612 C209.633959,69.7834556 211.910421,68.8628199 214.736035,68.8628199 L214.736035,68.8628199 L229.888048,68.8628199 Z M219.208039,0.5 C224.384709,0.5 228.732142,2.46292778 232.251919,6.38519827 C235.789056,10.3268141 237.55434,15.0682664 237.55434,20.6069744 C237.55434,26.1418498 235.791432,30.8274725 232.256508,34.6601592 C228.735492,38.4777649 224.386086,40.386854 219.208039,40.386854 C214.025989,40.386854 209.622047,38.4751789 205.994915,34.6548797 C202.357389,30.8236328 200.542308,26.1399913 200.542308,20.6069744 C200.542308,15.0701293 202.359782,10.3306704 205.999587,6.39053308 C209.625436,2.46550273 214.027398,0.5 219.208039,0.5 Z" id="bigPath2" stroke="url(#biglinearGradient-2)"></path>
            <path d="M342.587426,63.3022077 C350.405625,63.3022077 357.115298,64.2182667 362.715132,66.0575464 C368.301613,67.8924404 372.993625,70.2105892 376.788435,73.0170592 C380.584548,75.8244934 383.748924,78.7929981 386.27973,81.9244463 C389.248859,85.5982455 391.494877,88.90051 393.015155,91.8329876 L393.237754,92.2700861 L393.237754,78.8298545 C393.237754,75.4935609 393.924891,72.9767179 395.353881,71.3043932 C396.701485,69.7273128 398.703639,68.9306221 401.334977,68.8669692 L401.681761,68.8628199 L417.792061,68.8628199 L417.792061,241.068891 C417.792061,251.274557 416.573117,261.100287 414.134503,270.545986 C411.703604,279.961799 407.688648,288.241993 402.086887,295.385183 C396.492877,302.518489 389.102781,308.081946 379.920677,312.080696 C370.716594,316.089018 359.554388,317.869743 346.432759,317.436325 C328.639467,317.002508 314.284623,313.867056 303.374466,308.009896 C292.779232,302.321803 284.041209,293.348906 277.150855,281.101294 L276.762808,280.404536 L288.019545,268.877648 C289.007475,267.653504 290.450525,266.955006 292.330969,266.752314 C294.185297,266.552437 295.788174,267.263904 297.152237,268.852968 C302.511625,276.966362 308.995337,283.490102 316.601202,288.42641 C324.229918,293.37755 334.273057,295.866633 346.740001,295.866633 C360.520011,295.866633 371.329346,292.156338 379.185022,284.7733 C386.911704,277.511497 391.58951,265.936876 393.166122,250.018631 L393.237754,249.269281 L393.237754,211.987451 C391.823185,216.619005 389.343461,221.081379 385.803582,225.377478 C382.958164,228.830758 379.426869,231.959243 375.211554,234.764954 C370.994401,237.571889 366.144118,239.729682 360.661982,241.241063 C355.164929,242.756557 349.033448,243.512745 342.267998,243.512745 C330.641196,243.512745 320.334308,241.243747 311.349423,236.697611 C302.364558,232.151485 294.753843,225.927627 288.517289,218.026026 C282.272967,210.114583 277.565421,200.684915 274.390433,189.739257 C271.208567,178.769891 269.618794,166.877244 269.618794,154.061666 C269.618794,141.239198 270.997472,129.285905 273.756562,118.202013 C276.507864,107.14941 280.897291,97.5584814 286.929166,89.4313306 C292.952141,81.3161723 300.50744,74.9324746 309.594697,70.2798036 C318.688846,65.6236031 329.687634,63.3022077 342.587426,63.3022077 Z M345.462286,85.5259408 C336.854203,85.5259408 329.323827,87.2386283 322.868443,90.6539536 C316.406139,94.07294 311.128571,98.8153853 307.035776,104.881333 C302.959141,110.923328 299.899197,118.117843 297.860799,126.467113 C295.829018,134.789279 294.811959,143.987362 294.811959,154.061666 C294.811959,163.923796 295.990318,173.018634 298.344531,181.346551 C300.704466,189.694706 304.085547,196.888306 308.483453,202.929522 C312.893657,208.987632 318.16536,213.722692 324.296423,217.137153 C330.436139,220.556433 337.490646,222.270296 345.462286,222.270296 C353.013879,222.270296 359.809405,220.390015 365.850298,216.634309 C371.87482,212.888781 376.932415,207.82245 381.020629,201.432794 C385.092611,195.068505 388.255409,187.662434 390.505766,179.213102 C392.752695,170.776639 393.876611,161.956741 393.876611,152.753287 C393.876611,143.767929 392.805943,135.220982 390.665768,127.112291 C388.521776,118.989142 385.465028,111.854746 381.498736,105.707642 C377.515885,99.5348737 372.456062,94.6303664 366.320426,90.9929067 C360.176168,87.3503349 353.224048,85.5259408 345.462286,85.5259408 Z" id="bigPath3" stroke="url(#biglinearGradient-3)"></path>
            <path d="M621.289086,3.77094832 C639.973364,3.77094832 657.012523,6.21516829 672.40598,11.1070985 C687.773538,15.990798 700.916699,23.3145013 711.833188,33.0821002 C722.745499,42.8459609 731.218969,55.1605576 737.257672,70.022958 C743.305197,84.9070689 746.324618,102.45357 746.324618,122.660562 C746.324618,141.345775 743.30345,158.293459 737.256275,173.502622 C731.214082,188.699252 722.788147,201.61742 711.975642,212.25522 C701.162358,222.893785 688.228164,231.142929 673.174553,237.004927 C658.424165,242.748848 642.351305,245.678995 624.956611,245.798592 L623.844516,245.802408 L548.639882,245.802408 L548.639882,25.8404917 C548.639882,18.4753711 550.281646,12.9359996 553.621321,9.24900189 C556.863089,5.67009298 561.694493,3.86248177 568.088407,3.77433803 L568.583328,3.77094832 L621.289086,3.77094832 Z M626.399947,25.0133969 L572.555332,25.0133969 L572.555332,236.335019 L572.716067,235.959146 C574.475858,231.987558 577.68452,229.222991 582.32057,227.640555 C586.426997,226.238895 591.218223,225.541244 596.693065,225.541244 L596.693065,225.541244 L632.469095,225.541244 L633.342655,225.537367 C646.709327,225.418449 658.792224,222.564485 669.592742,216.980937 C680.623616,211.278301 689.940676,203.656214 697.544447,194.115311 C705.140307,184.584334 710.971914,173.629651 715.037346,161.250209 C719.099729,148.880049 721.131454,135.90786 721.131454,122.333467 C721.131454,106.998022 718.668033,93.3065056 713.747479,81.2575782 C708.822621,69.1981113 702.076366,58.9486098 693.511554,50.5071381 C684.943176,42.0621531 674.929069,35.7006591 663.468814,31.42331 C652.021862,27.1509264 639.665741,25.0133969 626.399947,25.0133969 L626.399947,25.0133969 Z" id="bigPath4" stroke="url(#biglinearGradient-4)"></path>
            <path d="M838.89998,63.6293026 C861.544783,63.6293026 878.540816,67.8855535 889.86677,76.4483898 C901.027389,84.8862275 906.629697,99.0959003 906.755581,119.027156 L906.757751,119.716708 L906.757751,235.181184 C906.757751,238.300399 905.697599,240.851441 903.563936,242.828228 C901.518019,244.723719 899.146345,245.714232 896.447757,245.79678 L896.077742,245.802408 L881.884015,245.802408 L881.884015,222.14691 C878.828661,231.89304 872.302659,239.13519 862.322715,243.888425 C853.220442,248.223643 842.212028,250.602714 829.307078,251.036026 C818.519107,251.252632 809.42202,250.012518 802.017968,247.304753 C794.647638,244.60932 788.695742,240.785483 784.16778,235.825368 C779.637819,230.863064 776.320305,225.037289 774.213394,218.349116 C772.097352,211.631958 770.934835,204.1564 770.722781,195.922257 C770.723297,187.681774 771.569665,180.091517 773.263945,173.151753 C774.948312,166.252592 778.000188,160.215184 782.421773,155.04067 C786.848105,149.860602 792.858138,145.656237 800.44531,142.419046 C808.06642,139.167376 817.487838,137.220911 828.702609,136.570857 C837.628271,136.135625 846.97896,136.244586 856.754678,136.897434 C866.485368,137.547274 874.843801,139.059888 881.828937,141.44001 L882.522873,141.680914 L882.522873,121.025088 C882.522873,107.96755 878.92377,98.5307566 871.799293,92.6722821 C864.703362,86.8372825 853.745845,83.8904666 838.89998,83.8904666 C829.448374,83.8904666 820.910598,85.762938 813.285248,89.5021485 C805.683437,93.229816 799.313964,97.2878391 794.174813,101.673244 C793.066753,103.09932 792.069998,103.843251 791.065512,103.843251 C790.126642,103.843251 789.240127,103.184999 788.361198,101.990594 L788.196477,101.76039 L778.837718,89.3020217 C781.958406,85.3173529 785.732284,81.7445379 790.158309,78.5825061 C794.704324,75.334751 799.726274,72.62867 805.223748,70.4635131 C810.733653,68.2934603 816.402501,66.6116859 822.230284,65.4181571 C828.051448,64.2259839 833.607975,63.6293026 838.89998,63.6293026 Z M858.904052,157.161293 C850.689659,156.505849 841.781846,156.287167 832.16837,156.506077 C818.126825,157.169701 808.439325,161.081243 803.045862,168.150556 C797.658084,175.212419 795.165729,184.257241 795.596897,195.295131 C796.028231,206.778968 798.853897,215.434607 804.027134,221.283808 C809.211075,227.145112 818.049588,230.120572 830.59483,230.120572 C837.90643,230.120572 844.733844,228.743105 851.077583,225.99057 C857.420235,223.238506 862.848219,219.604638 867.363204,215.091378 C871.878189,210.578117 875.425225,205.514183 878.005191,199.900182 C880.591691,194.271963 881.884015,188.478075 881.884015,182.518916 L881.884015,182.518916 L881.884015,161.547817 L881.012684,161.270057 C874.303763,159.1722 866.934335,157.802047 858.904052,157.161293 Z" id="bigPath5" stroke="url(#biglinearGradient-5)"></path>
            <path d="M993.402823,15.8734571 L993.402823,68.8628199 L1047.06687,68.8628199 L1047.06687,83.736277 C1047.06687,85.540211 1046.43707,86.9974779 1045.16316,88.101269 C1043.87682,89.2158336 1042.44326,89.7781736 1040.85886,89.7781736 L1040.85886,89.7781736 L993.402823,89.7781736 L993.402823,212.284546 C993.402823,216.689155 994.365836,219.978051 996.237254,222.176195 C998.131954,224.401685 1000.96442,225.541244 1004.7634,225.541244 L1004.7634,225.541244 L1047.06687,225.541244 L1047.06687,243.358555 C1047.06687,243.897594 1046.72166,244.416413 1046.11904,244.945341 C1045.4921,245.495609 1044.91599,245.802408 1044.37258,245.802408 L1044.37258,245.802408 L995.499967,245.802408 C986.939949,245.802408 980.401494,243.311328 975.908523,238.282549 C971.399125,233.235382 969.167945,225.979646 969.167945,216.536779 L969.167945,216.536779 L969.167945,89.7781736 L940.099921,89.7781736 L940.099921,74.2505268 C940.099921,72.4677964 940.608302,71.1141254 941.677885,70.2180107 C942.777767,69.2965101 944.435756,68.8628199 946.627355,68.8628199 L946.627355,68.8628199 L969.167945,68.8628199 L969.167945,25.8404917 C969.167945,22.9353339 970.124123,20.5451366 972.050667,18.6761877 C973.971161,16.8131081 976.142284,15.8734571 978.570239,15.8734571 L978.570239,15.8734571 L993.402823,15.8734571 Z" id="bigPath6" stroke="url(#biglinearGradient-6)"></path>
            <path d="M1139.64223,63.6293026 C1162.28703,63.6293026 1179.28307,67.8855535 1190.60902,76.4483898 C1201.76964,84.8862275 1207.37195,99.0959003 1207.49783,119.027156 L1207.5,119.716708 L1207.5,235.181184 C1207.5,238.300399 1206.43985,240.851441 1204.30618,242.828228 C1202.26027,244.723719 1199.88859,245.714232 1197.19001,245.79678 L1196.81999,245.802408 L1182.62626,245.802408 L1182.62626,222.14691 C1179.57091,231.89304 1173.04491,239.13519 1163.06496,243.888425 C1153.96269,248.223643 1142.95428,250.602714 1130.04933,251.036026 C1119.26136,251.252632 1110.16427,250.012518 1102.76022,247.304753 C1095.38989,244.60932 1089.43799,240.785483 1084.91003,235.825368 C1080.38007,230.863064 1077.06255,225.037289 1074.95564,218.349116 C1072.8396,211.631958 1071.67708,204.1564 1071.46503,195.922257 C1071.46555,187.681774 1072.31191,180.091517 1074.00619,173.151753 C1075.69056,166.252592 1078.74244,160.215184 1083.16402,155.04067 C1087.59035,149.860602 1093.60039,145.656237 1101.18756,142.419046 C1108.80867,139.167376 1118.23009,137.220911 1129.44486,136.570857 C1138.37052,136.135625 1147.72121,136.244586 1157.49693,136.897434 C1167.22762,137.547274 1175.58605,139.059888 1182.57119,141.44001 L1183.26512,141.680914 L1183.26512,121.025088 C1183.26512,107.96755 1179.66602,98.5307566 1172.54154,92.6722821 C1165.44561,86.8372825 1154.48809,83.8904666 1139.64223,83.8904666 C1130.19062,83.8904666 1121.65285,85.762938 1114.0275,89.5021485 C1106.42569,93.229816 1100.05621,97.2878391 1094.91706,101.673244 C1093.809,103.09932 1092.81225,103.843251 1091.80776,103.843251 C1090.86889,103.843251 1089.98238,103.184999 1089.10345,101.990594 L1088.93873,101.76039 L1079.57997,89.3020217 C1082.70065,85.3173529 1086.47453,81.7445379 1090.90056,78.5825061 C1095.44657,75.334751 1100.46852,72.62867 1105.966,70.4635131 C1111.4759,68.2934603 1117.14475,66.6116859 1122.97253,65.4181571 C1128.7937,64.2259839 1134.35022,63.6293026 1139.64223,63.6293026 Z M1159.6463,157.161293 C1151.43191,156.505849 1142.52409,156.287167 1132.91062,156.506077 C1118.86907,157.169701 1109.18157,161.081243 1103.78811,168.150556 C1098.40033,175.212419 1095.90798,184.257241 1096.33915,195.295131 C1096.77048,206.778968 1099.59615,215.434607 1104.76938,221.283808 C1109.95332,227.145112 1118.79184,230.120572 1131.33708,230.120572 C1138.64868,230.120572 1145.47609,228.743105 1151.81983,225.99057 C1158.16248,223.238506 1163.59047,219.604638 1168.10545,215.091378 C1172.62044,210.578117 1176.16747,205.514183 1178.74744,199.900182 C1181.33394,194.271963 1182.62626,188.478075 1182.62626,182.518916 L1182.62626,182.518916 L1182.62626,161.547817 L1181.75493,161.270057 C1175.04601,159.1722 1167.67658,157.802047 1159.6463,157.161293 Z" id="bigPath7" stroke="url(#biglinearGradient-7)"></path>
        </g>
    </g>
</svg>