<svg xmlns="http://www.w3.org/2000/svg" xmlns:xlink="http://www.w3.org/1999/xlink" width="794px" height="244px" viewBox="0 0 794 244" version="1.1" class="img-svg replaced-svg">
    <title>Cloud</title>
    <defs>
        <linearGradient x1="0%" y1="58.8120299%" x2="100%" y2="58.8120299%" id="cloudlinearGradient-1">
            <stop stop-color="#C597F3" offset="0.0655594406%"></stop>
            <stop stop-color="#D497F3" offset="100%"></stop>
        </linearGradient>
        <linearGradient x1="0%" y1="58.8120299%" x2="100%" y2="58.8120299%" id="cloudlinearGradient-2">
            <stop stop-color="#D497F3" offset="0.0655594406%"></stop>
            <stop stop-color="#DA97F3" offset="100%"></stop>
        </linearGradient>
        <linearGradient x1="0%" y1="58.8120299%" x2="100%" y2="58.8120299%" id="cloudlinearGradient-3">
            <stop stop-color="#DA97F3" offset="0.0655594406%"></stop>
            <stop stop-color="#EA97F3" offset="100%"></stop>
        </linearGradient>
        <linearGradient x1="0%" y1="58.8120299%" x2="100%" y2="58.8120299%" id="cloudlinearGradient-4">
            <stop stop-color="#EA97F3" offset="0.0655594406%"></stop>
            <stop stop-color="#F397ED" offset="100%"></stop>
        </linearGradient>
        <linearGradient x1="0%" y1="58.8120299%" x2="100%" y2="58.8120299%" id="cloudlinearGradient-5">
            <stop stop-color="#F397ED" offset="0.0655594406%"></stop>
            <stop stop-color="#F397DE" offset="99.9371722%"></stop>
        </linearGradient>
    </defs>
    <g id="Img-/-main-/-core-bg-text_04_PC" stroke="none" stroke-width="1" fill="none" fill-rule="evenodd" opacity="0.5">
        <g id="Cloud" fill-rule="nonzero">
            <path d="M110.308597,-0.460383798 C127.166717,-0.876653158 142.671441,1.98730753 156.823658,8.12715971 C171.101116,14.3213468 184.537444,25.5387383 197.121612,41.7946463 L197.121612,41.7946463 L183.640922,51.1030979 C182.842376,51.6735145 182.056158,52.0092285 181.287074,52.1231721 C180.492109,52.2409502 179.711369,52.1252851 178.945453,51.7717691 C177.533668,51.1201454 176.283306,50.1443909 175.200584,48.8450178 C170.467945,43.2890512 165.582059,38.812066 160.540652,35.4166735 C155.500224,32.0219408 150.25422,29.34696 144.8023,27.3924067 C139.349435,25.4375147 133.587846,24.1517828 127.517709,23.5344517 C121.427202,22.9150492 115.078621,22.7087508 108.46545,22.9153794 C97.1470128,23.1211788 86.5999945,25.6413192 76.8248573,30.477666 C67.044318,35.3166855 58.448455,42.1127092 51.0359334,50.8640122 C43.61538,59.6247978 37.7940939,70.0871035 33.5685866,82.2488889 C29.3383508,94.4242835 27.225636,108.147692 27.225636,123.418232 C27.225636,137.65065 29.3893568,150.645957 33.7208376,162.403383 C38.0478433,174.148663 44.0733284,184.246485 51.8002694,192.695002 C59.5242103,201.14024 68.6385768,207.782957 79.14311,212.623507 C89.6475079,217.463996 101.079002,219.985763 113.444693,220.191928 C119.830877,220.397944 126.26854,219.882702 132.757712,218.646611 C139.2424,217.411375 145.36693,215.455858 151.131119,212.779502 C156.894436,210.103551 162.24608,206.758601 167.186065,202.744676 C172.111414,198.742642 176.113987,194.176777 179.192145,189.045598 C180.404565,186.846537 181.744257,185.500418 183.170797,184.951724 C184.654811,184.380922 186.260411,184.632135 187.984159,185.783203 L187.984159,185.783203 L201.083997,195.049376 C196.458505,204.183419 190.919966,211.814848 184.471741,217.946234 C178.116488,223.989216 171.083934,228.938046 163.3743,232.793044 C155.668724,236.646012 147.702758,239.40535 139.476555,241.071494 C131.259828,242.735719 123.095094,243.567667 114.982387,243.567667 C97.7135443,243.567667 82.0058184,240.496297 67.858142,234.358415 C53.7057221,228.218475 41.5831392,219.788291 31.4892247,209.069509 C21.3976406,198.353202 13.5417322,185.660712 7.92367548,170.990655 C2.30883251,156.32899 -0.5,140.471697 -0.5,123.418232 C-0.5,105.954591 2.15198243,89.7386768 7.45314577,74.7699857 C12.7581252,59.7905192 20.1967679,46.7883685 29.7664144,35.7619555 C39.342369,24.728274 50.9476439,16.0360881 64.5830572,9.68647639 C78.2123034,3.33973648 93.4537437,-0.0441951069 110.308597,-0.460383798 Z" id="cloudPath1" stroke="url(#cloudlinearGradient-1)"></path>
            <path d="M251.596673,7.30890767 L251.596673,229.704223 C251.596673,232.781089 250.538016,235.133227 248.454254,236.778379 C246.402586,238.398193 243.867171,239.216778 240.841487,239.216778 L240.841487,239.216778 L226.357143,239.216778 L226.357143,16.8214625 C226.357143,13.7474982 227.362145,11.3988527 229.333911,9.75563754 C231.281995,8.13215834 233.768152,7.30890767 236.801566,7.30890767 L236.801566,7.30890767 L251.596673,7.30890767 Z" id="cloudPath2" stroke="url(#cloudlinearGradient-2)"></path>
            <path d="M358.931507,64.1812365 C373.099652,64.1812365 385.286826,66.4784676 395.495606,71.0622159 C405.723364,75.6544856 414.070919,81.9706437 420.541312,90.0068305 C427.00486,98.0345156 431.75019,107.520937 434.773542,118.468071 C437.788923,129.386338 439.297652,141.188366 439.297652,153.874452 C439.297652,166.768096 437.788824,178.673701 434.773542,189.59161 C431.750571,200.537363 427.006032,210.074839 420.543278,218.205782 C414.072394,226.346952 405.724117,232.715635 395.495606,237.308243 C385.286826,241.891991 373.099652,244.189222 358.931507,244.189222 C345.17666,244.189222 333.299068,241.891519 323.296166,237.30664 C313.278583,232.715033 304.98375,226.348326 298.409848,218.208828 C291.8441,210.079426 286.944249,200.543732 283.713416,189.600076 C280.48942,178.679579 278.876125,166.771171 278.876125,153.874452 C278.876125,141.185317 280.489308,129.380483 283.713416,118.459605 C286.944652,107.514585 291.845294,98.0299455 298.41184,90.0037911 C304.985234,81.969267 313.279334,75.6550809 323.296166,71.0638183 C333.299068,66.47894 345.17666,64.1812365 358.931507,64.1812365 Z M359.553033,86.0033459 C350.112974,86.0033459 342.004749,87.7417547 335.231726,91.2310507 C328.467841,94.7156396 322.933224,99.4808078 318.628866,105.52769 C314.312273,111.591758 311.128384,118.735886 309.07294,126.95805 C307.010476,135.208288 305.980235,144.180508 305.980235,153.874452 C305.980235,163.775914 307.010563,172.903996 309.07329,181.258431 C311.128703,189.583243 314.312323,196.77877 318.628866,202.842769 C322.931851,208.887722 328.464608,213.600261 335.226355,216.981293 C342.000873,220.36871 350.110835,222.056335 359.553033,222.056335 C368.579262,222.056335 376.376593,220.369492 382.941884,216.984105 C389.499832,213.602505 394.930511,208.888638 399.234148,202.842769 C403.551815,196.77719 406.787776,189.579813 408.946529,181.252807 C411.111947,172.900089 412.193542,163.773869 412.193542,153.874452 C412.193542,144.182565 411.112041,135.212227 408.946911,126.963731 C406.788117,118.739366 403.551884,111.593365 399.234148,105.52769 C394.929098,99.4798368 389.496524,94.7133232 382.936451,91.228121 C376.372685,87.740957 368.577118,86.0033459 359.553033,86.0033459 Z" id="cloudPath3" stroke="url(#cloudlinearGradient-3)"></path>
            <path d="M498.964188,69.1536805 L498.964188,184.330671 C498.964188,197.833858 501.381151,207.371121 506.296217,212.900829 C511.197245,218.414744 519.792812,221.124002 532.026614,221.124002 C544.744298,221.124002 554.981647,218.26608 562.727367,212.520641 C570.449148,206.79296 575.682983,198.199716 578.451859,186.757369 L578.451859,186.757369 L578.451859,80.2201241 C578.451859,76.9592879 579.598139,74.2994109 581.879408,72.2353091 C584.146838,70.1837279 586.899018,69.1536805 590.139335,69.1536805 L590.139335,69.1536805 L604.934442,69.1536805 L604.934442,228.150335 C604.934442,231.607516 604.105666,234.298375 602.487836,236.239862 C600.848661,238.206965 598.399361,239.216778 595.111546,239.216778 L595.111546,239.216778 L578.451859,239.216778 L578.451859,222.74845 C574.502534,228.780501 568.898448,233.785352 561.633582,237.756998 C553.805427,242.036589 543.21398,244.189222 529.851272,244.189222 C509.572831,244.189222 494.857475,239.138286 485.665075,229.109744 C476.473124,219.081692 471.860078,205.50706 471.860078,188.370782 L471.860078,188.370782 L471.860078,80.2201241 C471.860078,76.9568719 473.059466,74.2937431 475.451655,72.2276652 C477.826452,70.1766082 480.525716,69.1536805 483.547554,69.1536805 L483.547554,69.1536805 L498.964188,69.1536805 Z" id="cloudPath4" stroke="url(#cloudlinearGradient-4)"></path>
            <path d="M784.366341,7.30890767 C786.983919,7.30890767 789.335305,8.38805648 791.410257,10.5723189 C793.391418,12.6578488 794.412982,14.9457627 794.494673,17.4288135 L794.5,17.7537958 L794.5,239.216778 L777.840313,239.216778 C774.77643,239.216778 772.377811,238.218545 770.62981,236.251952 C768.967445,234.381704 768.09509,232.115247 768.022375,229.44876 L768.017417,229.082668 L768.017417,220.699991 C763.807204,228.905841 757.566593,234.855313 749.298789,238.551681 C740.436866,242.513668 729.85554,244.5 717.55225,244.5 C705.24706,244.5 694.455338,242.305597 685.174862,237.925842 C675.884114,233.541239 668.107334,227.381583 661.843951,219.447593 C655.590504,211.526189 650.898447,202.146456 647.771641,191.306356 C644.65196,180.490954 643.090607,168.531769 643.090607,155.42834 C643.090607,142.537478 644.546893,130.530429 647.457578,119.406936 C650.375487,108.255831 654.910584,98.5648443 661.058877,90.3319998 C667.216572,82.086565 674.835519,75.6156081 683.915486,70.9188537 C692.992613,66.2235683 703.685954,63.8704587 715.998434,63.8704587 C723.71323,63.8704587 730.48935,64.6544783 736.327417,66.2183194 C742.176792,67.7851897 747.294278,69.8758257 751.681191,72.4872058 C756.083848,75.1079574 759.69879,78.0971965 762.528924,81.4515862 C764.634068,83.9466881 766.361424,86.4422982 767.712347,88.9375975 L768.017417,89.5134299 L768.017417,7.30890767 L784.366341,7.30890767 Z M719.41683,86.3141237 C711.224694,86.3141237 704.054751,88.0501176 697.90992,91.5323516 C691.760509,95.017181 686.636415,99.7323427 682.536857,105.67698 C678.423983,111.640927 675.290852,118.891377 673.131694,127.42559 C670.965837,135.986283 669.883953,145.320626 669.883953,155.42834 C669.883953,165.326126 670.96512,174.34779 673.130187,182.492949 C675.289037,190.614718 678.422275,197.60684 682.534529,203.467077 C686.630214,209.303702 691.749263,213.80992 697.892924,216.984294 C704.042611,220.161781 711.218124,221.745557 719.41683,221.745557 C727.205213,221.745557 734.225968,220.159959 740.477576,216.982764 C746.725159,213.807614 751.948003,209.300402 756.147125,203.462325 C760.362372,197.601829 763.598645,190.609404 765.860401,182.487263 C768.128091,174.343816 769.26047,165.324031 769.26047,155.42834 C769.26047,146.353831 768.229714,137.640176 766.167415,129.287472 C764.11025,120.955566 761.026256,113.651389 756.911813,107.376569 C752.808846,101.119252 747.629086,96.0413139 741.372016,92.143285 C735.12835,88.253606 727.80886,86.3141237 719.41683,86.3141237 Z" id="cloudPath5" stroke="url(#cloudlinearGradient-5)"></path>
        </g>
    </g>
</svg>